# xmcd
#
# Track frame offsets: 
#        150
#        18686
#        41252
#        59050
#        86436
#        105480
#        123592
#        142116
#        156836
#        180536
#
# Disc length: 2621 seconds
#
# Revision: 0
# Processed by: cddbd v1.5.2PL0 Copyright (c) Steve Scherf et al.
# Submitted via: ExactAudioCopy v0.95a5
#
DISCID=860a3b0a
DTITLE=Instant Blues - Swiat bez wad
DYEAR=2012
DGENRE=Blues
TTITLE0=Cztery Sciany
TTITLE1=Mala
TTITLE2=Sila
TTITLE3=Slowianski
TTITLE4=Slowo
TTITLE5=Spiewaj Bluesa
TTITLE6=Swiat bez Wad
TTITLE7=Cieplo - Zimno
TTITLE8=Nie Wiem
TTITLE9=Szare Dni
EXTD=
EXTT0=
EXTT1=
EXTT2=
EXTT3=
EXTT4=
EXTT5=
EXTT6=
EXTT7=
EXTT8=
EXTT9=
PLAYORDER=
